<svg width="99" height="36" viewBox="0 0 99 36" fill="none" xmlns="http://www.w3.org/2000/svg">
<g clip-path="url(#clip0_22_159)">
<path d="M51.1118 11.924L55.8218 11.6259C55.9293 12.3799 56.1263 12.941 56.4486 13.3444C56.968 13.9756 57.6843 14.2913 58.6335 14.2913C59.3319 14.2913 59.8871 14.1335 60.2632 13.8003C60.6214 13.5372 60.8363 13.1164 60.8363 12.678C60.8363 12.2572 60.6393 11.8539 60.299 11.5908C59.9408 11.2752 59.0991 10.9596 57.7739 10.679C55.6069 10.2055 54.0488 9.57427 53.1355 8.76764C52.2221 8.01363 51.7028 6.9089 51.7386 5.73404C51.7386 4.92741 51.9893 4.12079 52.455 3.45444C52.9922 2.70043 53.7265 2.10423 54.604 1.77105C55.5532 1.36774 56.8784 1.15732 58.544 1.15732C60.5856 1.15732 62.1436 1.52556 63.2182 2.27958C64.2927 3.01606 64.9374 4.20846 65.1344 5.83925L60.4781 6.10228C60.3528 5.40086 60.102 4.89234 59.6901 4.55917C59.2782 4.226 58.741 4.06818 58.0425 4.06818C57.4694 4.06818 57.0396 4.19093 56.7531 4.41889C56.4844 4.62931 56.3054 4.94495 56.3233 5.29565C56.3233 5.55868 56.4665 5.80418 56.6814 5.96199C56.9143 6.17242 57.4694 6.36531 58.347 6.54066C60.5139 6.99658 62.0541 7.4525 63.0033 7.92595C63.9524 8.3994 64.633 8.97807 65.0449 9.66195C65.4747 10.3634 65.6896 11.17 65.6717 11.9941C65.6717 12.9761 65.3851 13.9581 64.812 14.7823C64.2211 15.6415 63.3973 16.3078 62.4302 16.7111C61.4094 17.1495 60.1199 17.3775 58.5798 17.3775C55.8576 17.3775 53.9772 16.869 52.9206 15.8344C51.864 14.7998 51.2372 13.5022 51.1118 11.924ZM1.12826 17.1145V1.43788H9.38423C10.9065 1.43788 12.0885 1.56063 12.8944 1.82366C13.6823 2.06915 14.3808 2.57768 14.8464 3.26156C15.3658 4.01557 15.6165 4.89234 15.5986 5.80418C15.6523 7.34728 14.8464 8.82025 13.4674 9.5918C12.9302 9.8899 12.3392 10.1003 11.7303 10.2055C12.178 10.3283 12.6257 10.5387 13.0197 10.7842C13.3242 11.0297 13.5749 11.3103 13.8077 11.6084C14.0763 11.9065 14.3092 12.2396 14.5062 12.5903L16.9059 17.132H11.2826L8.63206 12.3098C8.29179 11.696 8.00525 11.2927 7.73661 11.0998C7.37844 10.8543 6.94863 10.7316 6.51881 10.7316H6.089V17.0969H1.12826V17.1145ZM6.089 7.78567H8.18433C8.63206 7.7506 9.06187 7.68046 9.49168 7.57524C9.81404 7.52264 10.1006 7.34728 10.2976 7.08425C10.7811 6.45298 10.7095 5.55868 10.1185 5.01509C9.79613 4.75206 9.16932 4.61177 8.27388 4.61177H6.089V7.78567ZM0 30.5465L4.71002 30.2484C4.81747 31.0024 5.01447 31.5636 5.33683 31.9669C5.83828 32.5981 6.57254 32.9313 7.52171 32.9313C8.22015 32.9313 8.77533 32.7735 9.15141 32.4403C9.50959 32.1598 9.72449 31.7564 9.72449 31.3181C9.72449 30.8972 9.5275 30.4939 9.18723 30.2309C8.82905 29.9152 7.98734 29.5996 6.64418 29.319C4.47721 28.8456 2.91914 28.2143 2.00579 27.4077C1.09244 26.6537 0.573083 25.5489 0.6089 24.3741C0.6089 23.5674 0.859624 22.7608 1.32525 22.0945C1.86252 21.3405 2.59678 20.7443 3.47431 20.4111C4.42348 20.0078 5.74873 19.7974 7.41426 19.7974C9.45586 19.7974 11.0139 20.1656 12.0885 20.9196C13.163 21.6736 13.7898 22.8485 13.9868 24.4793L9.3305 24.7423C9.20514 24.0409 8.95441 23.5324 8.54251 23.1992C8.14852 22.866 7.59334 22.7082 6.8949 22.7258C6.32182 22.7258 5.892 22.8485 5.60546 23.094C5.31892 23.3044 5.15774 23.6201 5.17565 23.9708C5.17565 24.2338 5.31892 24.4793 5.53383 24.6371C5.76664 24.8475 6.32182 25.0404 7.19935 25.2158C9.36632 25.6717 10.9065 26.1276 11.8556 26.6011C12.8048 27.0745 13.4853 27.6532 13.8973 28.3371C14.3271 29.0385 14.542 29.8451 14.542 30.6517C14.542 31.6337 14.2375 32.5981 13.6823 33.4223C13.0914 34.2815 12.2675 34.9479 11.3005 35.3512C10.2797 35.7896 8.99023 36.0175 7.45007 36.0175C4.72793 36.0175 2.8475 35.509 1.79088 34.4744C0.734262 33.4223 0.143271 32.1247 0 30.5465Z" fill="white"/>
<path d="M23.8187 29.319L28.1527 30.5991C27.9199 31.6688 27.4363 32.6858 26.7737 33.5801C26.1648 34.3692 25.3589 34.9829 24.4455 35.3863C23.5143 35.7896 22.3323 36 20.8996 36C19.1624 36 17.7297 35.7545 16.6373 35.2635C15.5269 34.7725 14.5778 33.8958 13.7719 32.6507C12.966 31.4057 12.572 29.81 12.572 27.8636C12.572 25.2684 13.2704 23.2694 14.6852 21.8841C16.1 20.4988 18.0879 19.7974 20.6668 19.7974C22.6905 19.7974 24.2665 20.2007 25.4305 20.9898C26.5767 21.7964 27.4363 23.0239 28.0094 24.6722L23.6396 25.6191C23.5322 25.2508 23.371 24.8826 23.1561 24.567C22.8875 24.1987 22.5472 23.9182 22.1353 23.7077C21.7234 23.4973 21.2578 23.4096 20.7921 23.4096C19.6639 23.4096 18.8043 23.848 18.2133 24.7423C17.7656 25.3911 17.5327 26.4257 17.5327 27.8285C17.5327 29.5645 17.8014 30.7569 18.3386 31.4057C18.8759 32.0545 19.6281 32.3702 20.6131 32.3702C21.5622 32.3702 22.2786 32.1072 22.7621 31.5986C23.2457 31.055 23.6038 30.301 23.8187 29.319ZM33.9372 20.0604H38.8801V25.5489H44.2885V20.0604H49.2672V35.737H44.2885V29.3892H38.8801V35.737H33.9372V20.0604Z" fill="white"/>
<path d="M48.5866 27.8987C48.5866 25.3385 49.3209 23.3395 50.7715 21.9192C52.2221 20.4988 54.2637 19.7798 56.8605 19.7798C59.5289 19.7798 61.5705 20.4813 63.0212 21.8841C64.4718 23.2869 65.1881 25.2509 65.1881 27.7759C65.1881 29.6172 64.8658 31.1077 64.239 32.2825C63.6301 33.4399 62.6809 34.3868 61.5168 35.018C60.3169 35.6668 58.8305 36 57.0575 36C55.2487 36 53.7623 35.7194 52.5803 35.1583C51.3625 34.5621 50.3596 33.6327 49.697 32.4929C48.9627 31.2655 48.5866 29.7399 48.5866 27.8987ZM53.5295 27.9162C53.5295 29.4944 53.8339 30.6342 54.4249 31.3356C55.0159 32.0195 55.8397 32.3702 56.8784 32.3702C57.9351 32.3702 58.7589 32.037 59.3498 31.3532C59.9408 30.6693 60.2274 29.4593 60.2274 27.7058C60.2274 26.2328 59.9229 25.1457 59.314 24.4793C58.7051 23.7954 57.8813 23.4623 56.8426 23.4623C55.9293 23.4272 55.0517 23.813 54.4428 24.4968C53.8339 25.1807 53.5295 26.3205 53.5295 27.9162ZM70.2563 27.8987C70.2563 25.3385 70.9906 23.3395 72.4412 21.9192C73.8918 20.4988 75.9334 19.7798 78.5302 19.7798C81.1986 19.7798 83.2581 20.4813 84.6908 21.8841C86.1235 23.2869 86.8578 25.2509 86.8578 27.7759C86.8578 29.6172 86.5354 31.1077 85.9086 32.2825C85.2997 33.4399 84.3506 34.3868 83.1865 35.018C81.9866 35.6668 80.5002 36 78.7272 36C76.9184 36 75.432 35.7194 74.25 35.1583C73.0322 34.5621 72.0293 33.6327 71.3667 32.4929C70.6324 31.2655 70.2563 29.7399 70.2563 27.8987ZM75.1992 27.9162C75.1992 29.4944 75.5036 30.6342 76.0946 31.3356C76.6856 32.0195 77.5094 32.3702 78.5481 32.3702C79.6047 32.3702 80.4285 32.037 81.0195 31.3532C81.6105 30.6693 81.8971 29.4593 81.8971 27.7058C81.8971 26.2328 81.5926 25.1457 80.9837 24.4793C80.3748 23.7954 79.551 23.4623 78.5123 23.4623C77.5989 23.4272 76.7035 23.813 76.1125 24.4968C75.5036 25.1807 75.1992 26.3205 75.1992 27.9162Z" fill="white"/>
<path d="M86.3385 20.0604H91.2813V31.8792H99V35.737H86.3206V20.0604H86.3385Z" fill="white"/>
<path d="M80.8904 19.1557C85.8668 15.4838 87.4013 9.25935 84.3179 5.253C81.2345 1.24664 74.7007 0.975512 69.7243 4.64741C64.7479 8.3193 63.2134 14.5438 66.2968 18.5501C69.3802 22.5565 75.914 22.8276 80.8904 19.1557Z" fill="black"/>
<mask id="mask0_22_159" style="mask-type:luminance" maskUnits="userSpaceOnUse" x="64" y="2" width="22" height="20">
<path d="M80.8904 19.1557C85.8668 15.4838 87.4013 9.25935 84.3179 5.253C81.2345 1.24664 74.7007 0.975512 69.7243 4.64741C64.7479 8.3193 63.2134 14.5438 66.2968 18.5501C69.3802 22.5565 75.914 22.8276 80.8904 19.1557Z" fill="white"/>
</mask>
<g mask="url(#mask0_22_159)">
<path d="M53.6056 9.91455L79.3214 -9.06021L97.1159 14.0606L71.4002 33.0354L53.6056 9.91455Z" fill="black"/>
<mask id="mask1_22_159" style="mask-type:luminance" maskUnits="userSpaceOnUse" x="53" y="-10" width="45" height="44">
<path d="M53.6056 9.91455L79.3214 -9.06021L97.1159 14.0606L71.4002 33.0354L53.6056 9.91455Z" fill="white"/>
</mask>
<g mask="url(#mask1_22_159)">
<path d="M80.8904 19.1557C85.8668 15.4838 87.4013 9.25935 84.3179 5.253C81.2345 1.24664 74.7007 0.975512 69.7243 4.64741C64.7479 8.3193 63.2134 14.5438 66.2968 18.5501C69.3802 22.5565 75.914 22.8276 80.8904 19.1557Z" fill="black"/>
<mask id="mask2_22_159" style="mask-type:luminance" maskUnits="userSpaceOnUse" x="64" y="2" width="22" height="20">
<path d="M80.8904 19.1557C85.8668 15.4838 87.4013 9.25935 84.3179 5.253C81.2345 1.24664 74.7007 0.975512 69.7243 4.64741C64.7479 8.3193 63.2134 14.5438 66.2968 18.5501C69.3802 22.5565 75.914 22.8276 80.8904 19.1557Z" fill="white"/>
</mask>
<g mask="url(#mask2_22_159)">
<path d="M60.7665 11.4584L78.7735 -1.82784L89.9501 12.6946L71.9431 25.9809L60.7665 11.4584Z" fill="black"/>
<mask id="mask3_22_159" style="mask-type:luminance" maskUnits="userSpaceOnUse" x="63" y="-2" width="25" height="28">
<path d="M63.4199 20.0676L69.5838 -1.11L87.4865 3.9462L81.3226 25.1238L63.4199 20.0676Z" fill="white"/>
</mask>
<g mask="url(#mask3_22_159)">
<path d="M80.9104 19.1758C85.8758 15.5151 87.3924 9.2906 84.2979 5.27312C81.2034 1.25564 74.6696 0.966471 69.7043 4.62724C64.739 8.28801 63.2224 14.5125 66.3169 18.5299C69.4114 22.5474 75.9451 22.8366 80.9104 19.1758Z" fill="black" stroke="white" stroke-width="4" stroke-miterlimit="10"/>
</g>
<mask id="mask4_22_159" style="mask-type:luminance" maskUnits="userSpaceOnUse" x="63" y="-2" width="25" height="28">
<path d="M63.3326 20.1357L69.4968 -1.04177L87.3995 4.01473L81.2352 25.1922L63.3326 20.1357Z" fill="white"/>
</mask>
<g mask="url(#mask4_22_159)">
<path d="M60.7665 11.4181L78.7335 -1.82783L89.9501 12.735L71.9832 25.9809L60.7665 11.4181Z" stroke="white" stroke-width="4" stroke-miterlimit="10"/>
</g>
<path d="M80.8904 19.1557C85.8668 15.4838 87.4013 9.25935 84.3179 5.253C81.2345 1.24664 74.7007 0.975512 69.7243 4.64741C64.7479 8.3193 63.2134 14.5438 66.2968 18.5501C69.3802 22.5565 75.914 22.8276 80.8904 19.1557Z" stroke="white" stroke-width="4" stroke-miterlimit="10"/>
<path d="M60.7665 11.4584L78.7735 -1.82784L89.9501 12.6946L71.9431 25.9809L60.7665 11.4584Z" fill="black"/>
<mask id="mask5_22_159" style="mask-type:luminance" maskUnits="userSpaceOnUse" x="63" y="-2" width="25" height="28">
<path d="M63.4199 20.0676L69.5838 -1.11L87.4865 3.9462L81.3226 25.1238L63.4199 20.0676Z" fill="white"/>
</mask>
<g mask="url(#mask5_22_159)">
<path d="M80.9104 19.1758C85.8758 15.5151 87.3924 9.2906 84.2979 5.27312C81.2034 1.25564 74.6696 0.966471 69.7043 4.62724C64.739 8.28801 63.2224 14.5125 66.3169 18.5299C69.4114 22.5474 75.9451 22.8366 80.9104 19.1758Z" fill="black" stroke="white" stroke-width="4" stroke-miterlimit="10"/>
</g>
<mask id="mask6_22_159" style="mask-type:luminance" maskUnits="userSpaceOnUse" x="63" y="-2" width="25" height="28">
<path d="M63.3326 20.1357L69.4968 -1.04177L87.3995 4.01473L81.2352 25.1922L63.3326 20.1357Z" fill="white"/>
</mask>
<g mask="url(#mask6_22_159)">
<path d="M60.7665 11.4181L78.7335 -1.82783L89.9501 12.735L71.9832 25.9809L60.7665 11.4181Z" stroke="white" stroke-width="4" stroke-miterlimit="10"/>
</g>
<path d="M53.6056 9.91455L79.3214 -9.06021L97.1159 14.0606L71.4002 33.0354L53.6056 9.91455Z" stroke="white" stroke-width="4" stroke-miterlimit="10"/>
</g>
<path d="M80.8904 19.1557C85.8668 15.4838 87.4013 9.25935 84.3179 5.253C81.2345 1.24664 74.7007 0.975512 69.7243 4.64741C64.7479 8.3193 63.2134 14.5438 66.2968 18.5501C69.3802 22.5565 75.914 22.8276 80.8904 19.1557Z" stroke="white" stroke-width="4" stroke-miterlimit="10"/>
<path d="M70.2742 10.7491L72.0651 9.52168L74.2679 12.5904C74.644 13.0813 74.9305 13.6074 75.1454 14.1861C75.2708 14.6245 75.235 15.0979 75.0559 15.5188C74.8231 16.0448 74.447 16.4832 73.9456 16.7988C73.3546 17.2021 72.8531 17.4301 72.4233 17.5002C72.0114 17.5704 71.5816 17.5002 71.1876 17.3249C70.7578 17.1145 70.3817 16.8164 70.0952 16.4306L71.6353 15.0278C71.7607 15.2207 71.9219 15.396 72.1009 15.5363C72.2263 15.624 72.3696 15.6766 72.5308 15.6766C72.6561 15.6766 72.7815 15.624 72.871 15.5538C73.0501 15.4486 73.1755 15.2382 73.1576 15.0278C73.1038 14.7297 72.9785 14.4316 72.7815 14.2036L70.2742 10.7491ZM75.6469 12.6956L77.2766 11.433C77.4557 11.6434 77.6885 11.8013 77.9392 11.8889C78.2974 11.9942 78.6735 11.924 78.9779 11.6961C79.1928 11.5558 79.3719 11.3629 79.4436 11.1174C79.551 10.8018 79.3719 10.451 79.0496 10.3458C78.9958 10.3283 78.9421 10.3108 78.8884 10.3108C78.6735 10.2932 78.2974 10.3809 77.7422 10.6089C76.8289 10.9771 76.1125 11.1174 75.5753 11.0648C75.0559 11.0122 74.5724 10.7491 74.2858 10.3108C74.0709 10.0127 73.9635 9.66196 73.9456 9.31125C73.9456 8.90794 74.053 8.50463 74.2858 8.17146C74.6261 7.698 75.038 7.29469 75.5394 6.97905C76.2916 6.47053 76.9542 6.22504 77.5273 6.22504C78.1004 6.22504 78.6377 6.48807 79.1391 7.03166L77.5273 8.27667C77.205 7.87336 76.5961 7.78568 76.1842 8.10132L76.1304 8.15392C75.9513 8.25913 75.826 8.41695 75.7543 8.60984C75.7006 8.75012 75.7364 8.90794 75.826 9.03069C75.8976 9.11836 76.0051 9.1885 76.1304 9.1885C76.2737 9.20604 76.5244 9.1359 76.8826 8.97808C77.778 8.60984 78.4586 8.39942 78.9242 8.32927C79.3182 8.25913 79.7301 8.2942 80.1062 8.45202C80.4465 8.5923 80.733 8.8378 80.93 9.1359C81.1807 9.4866 81.324 9.90745 81.3419 10.3458C81.3598 10.8018 81.2344 11.2401 80.9837 11.6259C80.6614 12.0994 80.2495 12.5027 79.7659 12.8183C78.7809 13.4847 77.975 13.7652 77.3303 13.66C76.6319 13.5548 76.0588 13.2041 75.6469 12.6956Z" fill="white"/>
</g>
</g>
</g>
<defs>
<clipPath id="clip0_22_159">
<rect width="99" height="36" fill="white"/>
</clipPath>
</defs>
</svg>
